<svg xmlns="http://www.w3.org/2000/svg" viewBox="0 0 800 800"><g style="isolation:isolate"><path fill="#e9efff" d="M234,687.45c0-8.06,74.12-14.59,165.56-14.59s165.57,6.53,165.57,14.59S491,702,399.51,702,234,695.51,234,687.45Z"/><path fill="#e9efff" d="M156.68,658.84c0-4.56,42-8.27,93.86-8.27s93.87,3.71,93.87,8.27-42,8.27-93.87,8.27S156.68,663.41,156.68,658.84Z"/><path fill="#20196f" d="M182.72,569.81c3.07-33.21-22.47-51.16-61.7-49.32C124.24,551,148.4,582.11,182.72,569.81Z"/><path fill="#dde2f8" d="M584.48,489.64c13-.15,17.09-11.66,19-18.68C599.49,471.3,583.54,473.64,584.48,489.64Z"/><path fill="none" stroke="#dde2f8" stroke-linecap="round" stroke-linejoin="round" stroke-width="2" d="M520.66,584.19c8.37-25.65,30.33-64.38,65.18-96"/><path fill="#dde2f8" d="M521.79,565.44c-2-26.09-21-29.05-35.46-31.87C487.57,541.5,489.68,569.5,521.79,565.44Z"/><path fill="#dde2f8" d="M532.34,542.68c3.62-20.69-10.57-26.78-21.2-31.86C510.51,517.24,506.56,539.43,532.34,542.68Z"/><path fill="#dde2f8" d="M548.51,520.68c7.19-16.57-3.44-24.51-11.3-30.89C535.39,495,527.63,512.77,548.51,520.68Z"/><path fill="#dde2f8" d="M565.82,500.74c7.16-8.65,2.19-15.23-1.4-20.4C562.43,483.15,554.73,492.4,565.82,500.74Z"/><path fill="#dde2f8" d="M535,569c16.55-16.1,30.87-7,42.06-.48C571.59,573.08,553.88,590.4,535,569Z"/><path fill="#dde2f8" d="M546.91,544.48c11.94-15.94,25.36-10.1,35.77-6.06C578.66,543,565.9,560.17,546.91,544.48Z"/><path fill="#dde2f8" d="M565.31,517.74c10.86-8.22,18.57-1.84,24.64,2.78C586.44,522.78,574.82,531.62,565.31,517.74Z"/><path fill="#dde2f8" d="M579,500.59c5.34-5.87,10.44-3,14.41-1C591.62,501.22,585.91,507.53,579,500.59Z"/><path fill="#dde2f8" d="M479.42,649.19c-14.12-9.27-48.9-77.62-21.56-90.86,25.92-12.56,34.15,40.9,35.69,47.85,5.4-26.24,12.47-51.7,29.77-47.07s0,41.67,0,41.67c15.75-20.06,55-50.94,72.88-41.67s-36.3,42.51-36.3,42.51c24.62-14,98.19-32.77,24.72,2.72,33.63-10.88,99.23-16.22,26.31,6.48,43.89-3.81,66.17,2.16,66.94,8.34s-12.1,14.9-68.82,16.34c28,4.63,42.07,11.18,34.85,13.69Z"/><path fill="#fff" d="M573.41,616.2a2.28,2.28,0,1,1,2.28,2.28A2.27,2.27,0,0,1,573.41,616.2Z"/><path fill="#fff" d="M495.19,629.61a3.51,3.51,0,1,1,3.51,3.51A3.51,3.51,0,0,1,495.19,629.61Z"/><path fill="#fff" d="M540.84,603.63a3,3,0,1,1,3,3A3,3,0,0,1,540.84,603.63Z"/><path fill="#362e94" d="M190.81,578.06C153.3,546.23,110,561.87,79,610.8,118.6,632.76,176.6,629.91,190.81,578.06Z"/><path fill="none" stroke="#5652cc" stroke-linecap="round" stroke-linejoin="round" stroke-width="2" d="M190.81,578.06c-19.49,6.94-68.59,17.65-98.29,28.09"/><path fill="#ced3f8" d="M360.14,355.18c16.57-27.05,2.33-53.08-31.92-68C318.14,314.58,325.69,351.26,360.14,355.18Z"/><path fill="#e9edf7" d="M354.37,390.19c9.22-46-23.82-74.87-79-78.12C275.39,355.23,304.55,402.3,354.37,390.19Z"/><path fill="none" stroke="#dde2f8" stroke-linecap="round" stroke-linejoin="round" stroke-width="2" d="M354.37,390.19c-14.79-13-46.41-49.06-68.84-69"/><path fill="#dde2f8" d="M605.8,229.29c23.12,21.72,51.51,13.06,73.06-17.45C654.08,196.41,616.63,196.35,605.8,229.29Z"/><path fill="#e9edf7" d="M608,220.66c29.51,3.75,46.29-18.47,45.85-53.5C626.52,169.1,598.07,189.69,608,220.66Z"/><path fill="none" stroke="#fff" stroke-linecap="round" stroke-linejoin="round" stroke-width="2" d="M608,220.66c7.58-9.95,28.93-31.59,40.54-46.69"/><path fill="#807dfb" d="M362.9,438.2c3.16-14.61-1.25-53-33.78-59.47-14.72-2.94-18.77-2.86-23.67.68-3.2,2.3-4.71,5.82-8.18,5.3-6.35-1-2.45-24.31-25.13-30s-30.7,9.22-36.81,7.62-6.51-11.34-17.67-10.17-9.73,19.17-23.87,22.62c-14.72,3.59-37.82,14.82-34.49,28.48s14.56,10.35,22.15,16.41,13.48,33.2,35.21,27.9,28.85-10.32,44.39,12.15S304.44,481.59,315,473s10.94-.83,6.76,5.88,8.1,6.52,16.15.7S358.94,456.53,362.9,438.2Z"/><path fill="none" stroke="#6b67e9" stroke-linecap="round" stroke-linejoin="round" stroke-width="2" d="M369.55,441.79c-60.78-38.75-133.31-48.57-184.7-42.12"/><path fill="none" stroke="#6b67e9" stroke-linecap="round" stroke-linejoin="round" stroke-width="2" d="M226.89,398.08c-1.74-3-7.3-16.73-7.2-25.44"/><path fill="none" stroke="#6b67e9" stroke-linecap="round" stroke-linejoin="round" stroke-width="2" d="M215.77,397.84c-4,3.69-11,14.82-12.41,18.26"/><path fill="none" stroke="#6b67e9" stroke-linecap="round" stroke-linejoin="round" stroke-width="2" d="M273.39,403.72c-3-4.35-8.56-13.42-8.25-29.13"/><path fill="none" stroke="#6b67e9" stroke-linecap="round" stroke-linejoin="round" stroke-width="2" d="M255.38,400.66c-4.39,2.47-14.63,15.88-18.53,22.14"/><path fill="none" stroke="#6b67e9" stroke-linecap="round" stroke-linejoin="round" stroke-width="2" d="M308.71,413.08c-6.16,4.12-10.29,12.27-13.55,17.5"/><path fill="none" stroke="#6b67e9" stroke-linecap="round" stroke-linejoin="round" stroke-width="2" d="M328,420.23c-4.74-5.22-9.4-17.69-10.59-27.39"/><g><path fill="#f0ccc0" d="M447.29,670.06l-1.1-4.18,11.42-3a29.46,29.46,0,0,0,3.3,7.26C458.24,672.05,453.12,670.25,447.29,670.06Z"/><path fill="#20196f" d="M447.29,670.06c5.83.19,10.95,2,13.62.08,1.87.72,27.21,3,30,4s3.16,3.67.6,4.34c-3.73,1-34.83,7.69-34.83,7.69-.45.85-.77,1.65-.77,1.65l-7,1.85C445.83,686.56,443.54,675.51,447.29,670.06Z"/><path fill="#20196f" d="M373.8,407.89c-3,46.62,24.07,97.56,39.88,142.44,1.93,44.92,26.19,98,32.16,115.9,3.7-.77,12.59-3.05,12.59-3.05.06-22.32-5.95-122.45-24.43-255.29Z"/><path fill="#362e94" d="M350.4,403.3c-14,57-10.83,93.72-8.87,124.4-21.38,43.66-24.7,108-29.86,125.68l10.17,6c11.38-19.21,79.91-117.49,83.16-251.56C392.84,405.81,350.4,403.3,350.4,403.3Z"/><path fill="#f0ccc0" d="M309.48,657.1c1.2-2.05,2.19-3.72,2.19-3.72l10.17,6a28.84,28.84,0,0,0-2.81,7.45C315.78,666.28,313.45,661.38,309.48,657.1Z"/><path fill="#20196f" d="M309.48,657.1c4,4.28,6.3,9.18,9.55,9.72.41.94,4.83,6.48,9.24,12,6.89,2.65,14.32,5.53,15.62,6.42,2.5,1.7,2.13,4.35-.51,4.35H327.19c-9-5.76-22.5-14.53-22.5-14.53-.91.28-1.72.61-1.72.61L296.71,672C296.75,667.71,303,658.29,309.48,657.1Z"/><path fill="#f8d8d0" d="M485.62,325.1a22.71,22.71,0,0,1,6.18-5c.32,5.39-1.46,13.68-4.69,22.08l-10.76-7.47C479.93,331.09,483.22,327.77,485.62,325.1Z"/><path fill="#807dfb" d="M476.35,334.72l10.76,7.47c-6.36,16.57-18.38,33.54-31.1,29.45C444,367.79,462.41,348.88,476.35,334.72Z"/><path fill="#807dfb" d="M444.12,336,430.4,360.47l-20.21-22.8,17-21.68C435.85,326.89,444.12,336,444.12,336Z"/><path fill="#ed9f00" d="M409.44,289.78c10.7,8.88,12.37,15.64,18.55,25.26l-17.8,22.63L395,320.32Z"/><path fill="#ffd03e" d="M381.88,278c-13.66,2.35-30.59,12.82-31.22,42.49-.7,33.06-6.25,89-6.25,89,94.42,17.34,92.93,0,92.93,0-2-29.75-5.36-60.6-11.34-88.13C419.22,290.14,395.54,275.64,381.88,278Z"/><path fill="#f8d8d0" d="M373.82,258.69c1,4.24,5,15.22,3.74,20.87,5,11,31.09,10.85,22.62,2.71-1.66-1.59-1.77-7.9-1.09-9.56,2.33-5.72,6,1.25,9.23-7.88,3.77-10.64,3.15-30.79-2.22-35.86-6-5.67-17.52-12.18-31.11-2.17C363.91,235,371.84,250.07,373.82,258.69Z"/><path fill="#362e94" d="M383.69,247.75c3.29-.3.71-8.74,2.91-11,2.6-2.72,12-5.12,21.34-5.07s13.87-12.61,7.43-17-11.09,3.07-15.65,2.06c-5.32-1.18-5.06-7.54-12.62-6.09-7,1.34-3.11,7.57-7.47,9.2s-11.92-3.74-16.8,4.09c-3.62,5.8,3,8.28,2.95,14.33,0,3.77-8.18,15.75,2.33,19.37s7.13-6.37,6.16-10.55.66-7.16,2.76-7.47S379,248.17,383.69,247.75Z"/></g><g><path fill="#dde2f8" d="M169.84,558.8l9.95,49.56A64.42,64.42,0,1,0,306.1,583l-10-49.55Z"/><path fill="#6b67e9" d="M278.21,537.05l-11.37,2.28-3.9-19.46a34.53,34.53,0,0,0-67.7,13.59l3.91,19.46-11.37,2.28-3.9-19.45a46.11,46.11,0,1,1,90.42-18.16Z"/><path fill="#362e94" d="M229.31,590.74a12.4,12.4,0,1,1,14.59,9.72A12.39,12.39,0,0,1,229.31,590.74Z"/><rect width="10.76" height="26.65" x="238.83" y="588.65" fill="#362e94" transform="rotate(-11.35 244.239 602.01)"/><path fill="#ced3f8" d="M184.85,571.46a6.07,6.07,0,1,1,7.15,4.76A6.07,6.07,0,0,1,184.85,571.46Z"/><path fill="#bbc0e6" d="M193,564.62l-6.58,9.88a6.26,6.26,0,0,0,2.11,1.41l6.58-9.89A6,6,0,0,0,193,564.62Z"/><path fill="#ced3f8" d="M275.28,553.3a6.07,6.07,0,1,1,7.15,4.76A6.07,6.07,0,0,1,275.28,553.3Z"/><path fill="#bbc0e6" d="M283.47,546.47l-6.58,9.88a6,6,0,0,0,2.1,1.4l6.59-9.88A6.09,6.09,0,0,0,283.47,546.47Z"/></g><g><rect width="15.92" height="18.58" x="470.06" y="290.7" fill="#1f196f" transform="rotate(115.89 478.02 300.006)"/><path fill="#362e93" d="M406.79,406l51.74-106.58,16,7.78L415,429.74A17.81,17.81,0,0,1,406.79,406Z"/><path fill="#20196f" d="M490.56,314.92,438.83,421.5a17.82,17.82,0,0,1-23.8,8.24l59.52-122.59Z"/><path fill="#362e93" d="M432.61,242.39a93.35,93.35,0,1,0,57.65-118.76A93.33,93.33,0,0,0,432.61,242.39Zm3.22-31.73a85,85,0,1,1,83.81,86.16A85,85,0,0,1,435.83,210.66Z"/><path d="M467.74,145.45a85,85,0,0,0,118,121.28,85,85,0,1,1-118-121.28Z" style="mix-blend-mode:multiply" fill="#e9edf7"/></g><g><path fill="#9f9cff" d="M458.64,221.8l9.46,26.33a6.25,6.25,0,0,0,8,3.76l31.09-11.18a6.23,6.23,0,0,0,3.76-8l-9.47-26.33a6.24,6.24,0,0,0-8-3.77L462.4,213.81A6.24,6.24,0,0,0,458.64,221.8Zm13.84,9.89a5,5,0,1,1,6.34,3A5,5,0,0,1,472.48,231.69Z"/><polygon fill="#9f9cff" points="584.41 177.83 587.28 185.81 580.24 192.94 577 194.11 576.16 191.78 572.92 192.94 574.7 197.91 567.41 200.53 566.1 196.88 560.63 198.85 563.11 205.73 551.36 209.96 550.49 207.53 544 209.86 542.76 206.41 534.87 209.26 536.98 215.13 528.67 218.12 530.89 224.29 524.62 226.55 523.27 222.8 516.18 225.35 517.2 228.19 517.53 229.1 510.54 231.61 501.87 207.51 584.41 177.83"/><rect width="5.49" height="25.61" x="506.04" y="205.83" fill="#807dfb" transform="rotate(-19.78 508.735 218.628)"/><rect width="82.22" height="4.28" x="506.76" y="195.57" fill="#807dfb" transform="rotate(-19.78 547.786 197.69)"/><path fill="#807dfb" d="M494.36,205.06l-31.09,11.18a3.66,3.66,0,0,0-2.2,4.68l9.46,26.34a3.67,3.67,0,0,0,4.68,2.2l31.09-11.18a3.66,3.66,0,0,0,2.21-4.68L499,207.27A3.66,3.66,0,0,0,494.36,205.06Zm-15.54,29.61a5,5,0,1,1,3-6.33A5,5,0,0,1,478.82,234.67Z"/></g><g data-name="Front hands"><path fill="#f8d8d0" d="M452.65,400.11s-2,5-3.58,9.39c0,0-2.85-.55-7.5-1.69l4.71-10.71A69.68,69.68,0,0,0,452.65,400.11Z"/><path fill="#807dfb" d="M389,328.94c2.49,14.68,4.19,33.44,7.11,36.1,10.05,9.16,36.81,25.13,50.2,32.06l-4.71,10.71c-14.35-3.52-45.88-12.55-64.2-27.74-7.81-6.47-14.65-28-17.63-44.49C368.73,334.15,379.44,331,389,328.94Z"/><path fill="#fcba06" d="M363.66,290.51c-5.56,2.6-9.4,22.37-5.14,45.88,9.13-.66,23.64-3.87,32.15-7.39C385.79,305.78,378.32,283.65,363.66,290.51Z"/><path fill="#f8d8d0" d="M445.07,408.64c5.36,2.53,13,1.77,14.51-8.83.93-6.35-5.55-9.64-5.55-9.64-1.46,3.29-1.48,2.91-4.36,9Z"/><path fill="#f8d8d0" d="M491.8,320.11c.07-6.47-4.38-14.84-6.85-13.89s1.24,9.27,1.24,9.27c-1.15-1-4.55-6.71-5.86-2.79-1,3.11,5,7.5,5,7.5-1.31-.61-4.35-4.09-5.32-.95s2.89,11.53,2.89,11.53C485.63,330.48,491.69,330,491.8,320.11Z"/></g><g><path fill="#fcba06" d="M339.94,167.75l-12.85,6.76a1.71,1.71,0,0,1-2.48-1.8l2.46-14.31a1.73,1.73,0,0,0-.49-1.51l-10.4-10.14a1.7,1.7,0,0,1,.94-2.91l14.38-2.09a1.71,1.71,0,0,0,1.28-.93l6.43-13a1.71,1.71,0,0,1,3.06,0l6.42,13a1.71,1.71,0,0,0,1.29.93l14.37,2.09a1.71,1.71,0,0,1,.95,2.91l-10.4,10.14a1.69,1.69,0,0,0-.49,1.51l2.45,14.31a1.71,1.71,0,0,1-2.48,1.8l-12.85-6.76A1.72,1.72,0,0,0,339.94,167.75Z"/><path fill="#ed9f00" d="M365.3,146.75a1.71,1.71,0,0,0-.95-2.91L350,141.75a1.71,1.71,0,0,1-1.29-.93l-6.42-13a1.67,1.67,0,0,0-1.53-1c1,.45,1.23,3.05,1.23,4.26v20.53c0,12.05-.22,14.7-1.2,15.92a1.71,1.71,0,0,1,.76.19l12.85,6.76a1.71,1.71,0,0,0,2.48-1.8l-2.45-14.31a1.69,1.69,0,0,1,.49-1.51Z"/><path fill="#fcba06" d="M564.44,367.15l-10.35,5.44a1.37,1.37,0,0,1-2-1.45l2-11.52a1.36,1.36,0,0,0-.39-1.21l-8.37-8.16a1.38,1.38,0,0,1,.76-2.35l11.57-1.68a1.36,1.36,0,0,0,1-.75L563.84,335a1.38,1.38,0,0,1,2.47,0l5.17,10.48a1.35,1.35,0,0,0,1,.75l11.56,1.68a1.38,1.38,0,0,1,.76,2.35l-8.37,8.16a1.36,1.36,0,0,0-.39,1.21l2,11.52a1.38,1.38,0,0,1-2,1.45l-10.34-5.44A1.38,1.38,0,0,0,564.44,367.15Z"/><path fill="#ed9f00" d="M584.84,350.25a1.38,1.38,0,0,0-.76-2.35l-11.56-1.68a1.35,1.35,0,0,1-1-.75L566.31,335a1.35,1.35,0,0,0-1.24-.76c.82.36,1,2.46,1,3.43v16.52c0,9.7-.18,11.84-1,12.82a1.38,1.38,0,0,1,.62.15l10.34,5.44a1.38,1.38,0,0,0,2-1.45l-2-11.52a1.36,1.36,0,0,1,.39-1.21Z"/><path fill="#fcba06" d="M625.52,108.8l-7.51,4a1,1,0,0,1-1.44-1l1.43-8.36a1,1,0,0,0-.29-.89l-6.07-5.92a1,1,0,0,1,.55-1.7l8.4-1.22a1,1,0,0,0,.75-.55l3.75-7.6a1,1,0,0,1,1.79,0l3.76,7.6a1,1,0,0,0,.75.55l8.39,1.22a1,1,0,0,1,.56,1.7l-6.08,5.92a1,1,0,0,0-.29.89l1.44,8.36a1,1,0,0,1-1.45,1l-7.51-4A1,1,0,0,0,625.52,108.8Z"/><path fill="#ed9f00" d="M640.34,96.53a1,1,0,0,0-.56-1.7l-8.39-1.22a1,1,0,0,1-.75-.55l-3.76-7.6a1,1,0,0,0-.89-.56c.59.27.72,1.79.72,2.49v12c0,7-.13,8.59-.7,9.3a1,1,0,0,1,.44.11l7.51,4a1,1,0,0,0,1.45-1L634,103.34a1,1,0,0,1,.29-.89Z"/></g><g data-name="Secondary shapes"><path fill="#807dfb" d="M712.21,583.48,701,585.75a2.5,2.5,0,0,0-1.87,1.66l-3.64,10.85a2.48,2.48,0,0,0,.5,2.46l7.58,8.57a2.48,2.48,0,0,0,2.37.79l11.21-2.27a2.5,2.5,0,0,0,1.88-1.66l3.64-10.85a2.51,2.51,0,0,0-.5-2.45l-7.58-8.58A2.49,2.49,0,0,0,712.21,583.48Z"/><path fill="#e9edf7" d="M400.45,65.35l4.81,17.14a2.51,2.51,0,0,0,4.21,1.07L421.9,70.82a2.5,2.5,0,0,0-1.17-4.17l-17.25-4.4A2.5,2.5,0,0,0,400.45,65.35Z"/><path fill="#fcba06" d="M122.68,442.58l-12.16,13a2.5,2.5,0,0,0,1.26,4.15l17.34,4a2.5,2.5,0,0,0,3-3.16l-5.18-17A2.5,2.5,0,0,0,122.68,442.58Z"/></g></g></svg>